<?xml version="1.0" standalone="no"?>
<!DOCTYPE svg PUBLIC "-//W3C//DTD SVG 20010904//EN"
 "http://www.w3.org/TR/2001/REC-SVG-20010904/DTD/svg10.dtd">
<svg version="1.0" xmlns="http://www.w3.org/2000/svg"
 width="32.000000pt" height="32.000000pt" viewBox="0 0 32.000000 32.000000"
 preserveAspectRatio="xMidYMid meet">

<g transform="translate(0.000000,32.000000) scale(0.100000,-0.100000)"
fill="#000000" stroke="none">
<path d="M27 213 c-14 -14 -6 -45 13 -50 11 -3 20 -9 20 -14 0 -5 -9 -9 -20
-9 -11 0 -20 -4 -20 -9 0 -16 39 -19 60 -4 20 14 20 16 4 34 -9 10 -23 19 -31
19 -7 0 -13 5 -13 10 0 6 9 10 20 10 11 0 20 5 20 10 0 11 -43 14 -53 3z"/>
<path d="M225 210 c-8 -13 25 -13 45 0 12 8 9 10 -12 10 -15 0 -30 -4 -33 -10z"/>
<path d="M120 165 c0 -41 2 -45 25 -45 14 0 25 5 25 10 0 6 -7 10 -15 10 -10
0 -15 11 -15 35 0 19 -4 35 -10 35 -5 0 -10 -20 -10 -45z"/>
<path d="M203 164 c-3 -8 1 -23 10 -31 14 -14 17 -14 32 1 12 12 21 13 36 6
16 -9 19 -7 19 12 0 20 -6 23 -45 26 -34 2 -47 -2 -52 -14z"/>
</g>
</svg>
